<?xml version="1.0" encoding="UTF-8" standalone="no"?>
<!-- Created with Inkscape (http://www.inkscape.org/) -->

<svg
   xmlns:dc="http://purl.org/dc/elements/1.1/"
   xmlns:cc="http://creativecommons.org/ns#"
   xmlns:rdf="http://www.w3.org/1999/02/22-rdf-syntax-ns#"
   xmlns:svg="http://www.w3.org/2000/svg"
   xmlns="http://www.w3.org/2000/svg"
   xmlns:sodipodi="http://sodipodi.sourceforge.net/DTD/sodipodi-0.dtd"
   xmlns:inkscape="http://www.inkscape.org/namespaces/inkscape"
   id="svg2"
   version="1.1"
   inkscape:version="0.91 r13725"
   xml:space="preserve"
   width="744.02502"
   height="1052.5"
   viewBox="0 0 744.02502 1052.5"
   sodipodi:docname="master_template.svg"><metadata
     id="metadata8"><rdf:RDF><cc:Work
         rdf:about=""><dc:format>image/svg+xml</dc:format><dc:type
           rdf:resource="http://purl.org/dc/dcmitype/StillImage" /><dc:title /></cc:Work></rdf:RDF></metadata><defs
     id="defs6" /><sodipodi:namedview
     pagecolor="#ffffff"
     bordercolor="#666666"
     borderopacity="1"
     objecttolerance="10"
     gridtolerance="10"
     guidetolerance="10"
     inkscape:pageopacity="0"
     inkscape:pageshadow="2"
     inkscape:window-width="3440"
     inkscape:window-height="1376"
     id="namedview4"
     showgrid="false"
     inkscape:zoom="2.0000001"
     inkscape:cx="86.180531"
     inkscape:cy="314.18879"
     inkscape:window-x="0"
     inkscape:window-y="27"
     inkscape:window-maximized="1"
     inkscape:current-layer="g10" /><g
     id="g10"
     inkscape:groupmode="layer"
     inkscape:label="Abril 2019 - Javier Isabel"
     transform="matrix(1.25,0,0,-1.25,0,1052.5)"><path
       d="m 22.593,753.578 544.12,0 0,43.969 -544.12,0 0,-43.969 z m 0,0 319.74,0 0,43.969 -319.74,0 0,-43.969 z m 0,-30.228 28.047,0 0,27.48 -28.047,0 0,-27.48 z m 28.048,0 126.214,0 0,27.48 -126.214,0 0,-27.48 z m 126.212,0 123.409,0 0,27.48 -123.409,0 0,-27.48 z m 123.41,0 78.533,0 0,27.48 -78.533,0 0,-27.48 z m 78.533,0 61.705,0 0,27.48 -61.705,0 0,-27.48 z m 61.705,0 126.214,0 0,27.48 -126.214,0 0,-27.48 z m -417.908,-19.236 28.047,0 0,19.236 -28.047,0 0,-19.236 z m 28.048,0 126.214,0 0,19.236 -126.214,0 0,-19.236 z m 126.212,0 123.409,0 0,19.236 -123.409,0 0,-19.236 z m 123.41,0 78.533,0 0,19.236 -78.533,0 0,-19.236 z m 78.533,0 61.705,0 0,19.236 -61.705,0 0,-19.236 z m 61.705,0 126.214,0 0,19.236 -126.214,0 0,-19.236 z m -417.908,-19.236 28.047,0 0,19.236 -28.047,0 0,-19.236 z m 28.048,0 126.214,0 0,19.236 -126.214,0 0,-19.236 z m 126.212,0 123.409,0 0,19.236 -123.409,0 0,-19.236 z m 123.41,0 78.533,0 0,19.236 -78.533,0 0,-19.236 z m 78.533,0 61.705,0 0,19.236 -61.705,0 0,-19.236 z m 61.705,0 126.214,0 0,19.236 -126.214,0 0,-19.236 z m -417.908,-19.236 28.047,0 0,19.236 -28.047,0 0,-19.236 z m 28.048,0 126.214,0 0,19.236 -126.214,0 0,-19.236 z m 126.212,0 123.409,0 0,19.236 -123.409,0 0,-19.236 z m 123.41,0 78.533,0 0,19.236 -78.533,0 0,-19.236 z m 78.533,0 61.705,0 0,19.236 -61.705,0 0,-19.236 z m 61.705,0 126.214,0 0,19.236 -126.214,0 0,-19.236 z m -417.908,-19.236 28.047,0 0,19.236 -28.047,0 0,-19.236 z m 28.048,0 126.214,0 0,19.236 -126.214,0 0,-19.236 z m 126.212,0 123.409,0 0,19.236 -123.409,0 0,-19.236 z m 123.41,0 78.533,0 0,19.236 -78.533,0 0,-19.236 z m 78.533,0 61.705,0 0,19.236 -61.705,0 0,-19.236 z m 61.705,0 126.214,0 0,19.236 -126.214,0 0,-19.236 z M 22.593,627.17 l 28.047,0 0,19.236 -28.047,0 0,-19.236 z m 28.048,0 126.214,0 0,19.236 -126.214,0 0,-19.236 z m 126.212,0 123.409,0 0,19.236 -123.409,0 0,-19.236 z m 123.41,0 78.533,0 0,19.236 -78.533,0 0,-19.236 z m 78.533,0 61.705,0 0,19.236 -61.705,0 0,-19.236 z m 61.705,0 126.214,0 0,19.236 -126.214,0 0,-19.236 z m -417.908,-19.236 28.047,0 0,19.236 -28.047,0 0,-19.236 z m 28.048,0 126.214,0 0,19.236 -126.214,0 0,-19.236 z m 126.212,0 123.409,0 0,19.236 -123.409,0 0,-19.236 z m 123.41,0 78.533,0 0,19.236 -78.533,0 0,-19.236 z m 78.533,0 61.705,0 0,19.236 -61.705,0 0,-19.236 z m 61.705,0 126.214,0 0,19.236 -126.214,0 0,-19.236 z m -417.908,-19.237 28.047,0 0,19.236 -28.047,0 0,-19.236 z m 28.048,0 126.214,0 0,19.236 -126.214,0 0,-19.236 z m 126.212,0 123.409,0 0,19.236 -123.409,0 0,-19.236 z m 123.41,0 78.533,0 0,19.236 -78.533,0 0,-19.236 z m 78.533,0 61.705,0 0,19.236 -61.705,0 0,-19.236 z m 61.705,0 126.214,0 0,19.236 -126.214,0 0,-19.236 z m -417.908,-19.236 28.047,0 0,19.236 -28.047,0 0,-19.236 z m 28.048,0 126.214,0 0,19.236 -126.214,0 0,-19.236 z m 126.212,0 123.409,0 0,19.236 -123.409,0 0,-19.236 z m 123.41,0 78.533,0 0,19.236 -78.533,0 0,-19.236 z m 78.533,0 61.705,0 0,19.236 -61.705,0 0,-19.236 z m 61.705,0 126.214,0 0,19.236 -126.214,0 0,-19.236 z m -417.908,-19.236 28.047,0 0,19.236 -28.047,0 0,-19.236 z m 28.048,0 126.214,0 0,19.236 -126.214,0 0,-19.236 z m 126.212,0 123.409,0 0,19.236 -123.409,0 0,-19.236 z m 123.41,0 78.533,0 0,19.236 -78.533,0 0,-19.236 z m 78.533,0 61.705,0 0,19.236 -61.705,0 0,-19.236 z m 61.705,0 126.214,0 0,19.236 -126.214,0 0,-19.236 z m -417.908,-19.236 28.047,0 0,19.236 -28.047,0 0,-19.236 z m 28.048,0 126.214,0 0,19.236 -126.214,0 0,-19.236 z m 126.212,0 123.409,0 0,19.236 -123.409,0 0,-19.236 z m 123.41,0 78.533,0 0,19.236 -78.533,0 0,-19.236 z m 78.533,0 61.705,0 0,19.236 -61.705,0 0,-19.236 z m 61.705,0 126.214,0 0,19.236 -126.214,0 0,-19.236 z m -417.908,-19.236 28.047,0 0,19.236 -28.047,0 0,-19.236 z m 28.048,0 126.214,0 0,19.236 -126.214,0 0,-19.236 z m 126.212,0 123.409,0 0,19.236 -123.409,0 0,-19.236 z m 123.41,0 78.533,0 0,19.236 -78.533,0 0,-19.236 z m 78.533,0 61.705,0 0,19.236 -61.705,0 0,-19.236 z m 61.705,0 126.214,0 0,19.236 -126.214,0 0,-19.236 z m -417.908,-19.237 28.047,0 0,19.237 -28.047,0 0,-19.237 z m 28.048,0 126.214,0 0,19.237 -126.214,0 0,-19.237 z m 126.212,0 123.409,0 0,19.237 -123.409,0 0,-19.237 z m 123.41,0 78.533,0 0,19.237 -78.533,0 0,-19.237 z m 78.533,0 61.705,0 0,19.237 -61.705,0 0,-19.237 z m 61.705,0 126.214,0 0,19.237 -126.214,0 0,-19.237 z M 22.593,473.28 l 28.047,0 0,19.236 -28.047,0 0,-19.236 z m 28.048,0 126.214,0 0,19.236 -126.214,0 0,-19.236 z m 126.212,0 123.409,0 0,19.236 -123.409,0 0,-19.236 z m 123.41,0 78.533,0 0,19.236 -78.533,0 0,-19.236 z m 78.533,0 61.705,0 0,19.236 -61.705,0 0,-19.236 z m 61.705,0 126.214,0 0,19.236 -126.214,0 0,-19.236 z m -417.908,-19.235 28.047,0 0,19.236 -28.047,0 0,-19.236 z m 28.048,0 126.214,0 0,19.236 -126.214,0 0,-19.236 z m 126.212,0 123.409,0 0,19.236 -123.409,0 0,-19.236 z m 123.41,0 78.533,0 0,19.236 -78.533,0 0,-19.236 z m 78.533,0 61.705,0 0,19.236 -61.705,0 0,-19.236 z m 61.705,0 126.214,0 0,19.236 -126.214,0 0,-19.236 z m -417.908,-19.237 28.047,0 0,19.236 -28.047,0 0,-19.236 z m 28.048,0 126.214,0 0,19.236 -126.214,0 0,-19.236 z m 126.212,0 123.409,0 0,19.236 -123.409,0 0,-19.236 z m 123.41,0 78.533,0 0,19.236 -78.533,0 0,-19.236 z m 78.533,0 61.705,0 0,19.236 -61.705,0 0,-19.236 z m 61.705,0 126.214,0 0,19.236 -126.214,0 0,-19.236 z m -417.908,-19.236 28.047,0 0,19.236 -28.047,0 0,-19.236 z m 28.048,0 126.214,0 0,19.236 -126.214,0 0,-19.236 z m 126.212,0 123.409,0 0,19.236 -123.409,0 0,-19.236 z m 123.41,0 78.533,0 0,19.236 -78.533,0 0,-19.236 z m 78.533,0 61.705,0 0,19.236 -61.705,0 0,-19.236 z m 61.705,0 126.214,0 0,19.236 -126.214,0 0,-19.236 z m -417.908,-19.236 28.047,0 0,19.236 -28.047,0 0,-19.236 z m 28.048,0 126.214,0 0,19.236 -126.214,0 0,-19.236 z m 126.212,0 123.409,0 0,19.236 -123.409,0 0,-19.236 z m 123.41,0 78.533,0 0,19.236 -78.533,0 0,-19.236 z m 78.533,0 61.705,0 0,19.236 -61.705,0 0,-19.236 z m 61.705,0 126.214,0 0,19.236 -126.214,0 0,-19.236 z m -417.908,-19.237 28.047,0 0,19.237 -28.047,0 0,-19.237 z m 28.048,0 126.214,0 0,19.237 -126.214,0 0,-19.237 z m 126.212,0 123.409,0 0,19.237 -123.409,0 0,-19.237 z m 123.41,0 78.533,0 0,19.237 -78.533,0 0,-19.237 z m 78.533,0 61.705,0 0,19.237 -61.705,0 0,-19.237 z m 61.705,0 126.214,0 0,19.237 -126.214,0 0,-19.237 z m -417.908,-19.236 28.047,0 0,19.236 -28.047,0 0,-19.236 z m 28.048,0 126.214,0 0,19.236 -126.214,0 0,-19.236 z m 126.212,0 123.409,0 0,19.236 -123.409,0 0,-19.236 z m 123.41,0 78.533,0 0,19.236 -78.533,0 0,-19.236 z m 78.533,0 61.705,0 0,19.236 -61.705,0 0,-19.236 z m 61.705,0 126.214,0 0,19.236 -126.214,0 0,-19.236 z m -417.908,-19.236 28.047,0 0,19.236 -28.047,0 0,-19.236 z m 28.048,0 126.214,0 0,19.236 -126.214,0 0,-19.236 z m 126.212,0 123.409,0 0,19.236 -123.409,0 0,-19.236 z m 123.41,0 78.533,0 0,19.236 -78.533,0 0,-19.236 z m 78.533,0 61.705,0 0,19.236 -61.705,0 0,-19.236 z m 61.705,0 126.214,0 0,19.236 -126.214,0 0,-19.236 z m -417.908,-19.236 28.047,0 0,19.236 -28.047,0 0,-19.236 z m 28.048,0 126.214,0 0,19.236 -126.214,0 0,-19.236 z m 126.212,0 123.409,0 0,19.236 -123.409,0 0,-19.236 z m 123.41,0 78.533,0 0,19.236 -78.533,0 0,-19.236 z m 78.533,0 61.705,0 0,19.236 -61.705,0 0,-19.236 z m 61.705,0 126.214,0 0,19.236 -126.214,0 0,-19.236 z m -417.908,-19.236 28.047,0 0,19.236 -28.047,0 0,-19.236 z m 28.048,0 126.214,0 0,19.236 -126.214,0 0,-19.236 z m 126.212,0 123.409,0 0,19.236 -123.409,0 0,-19.236 z m 123.41,0 78.533,0 0,19.236 -78.533,0 0,-19.236 z m 78.533,0 61.705,0 0,19.236 -61.705,0 0,-19.236 z m 61.705,0 126.214,0 0,19.236 -126.214,0 0,-19.236 z m -417.908,-19.237 28.047,0 0,19.236 -28.047,0 0,-19.236 z m 28.048,0 126.214,0 0,19.236 -126.214,0 0,-19.236 z m 126.212,0 123.409,0 0,19.236 -123.409,0 0,-19.236 z m 123.41,0 78.533,0 0,19.236 -78.533,0 0,-19.236 z m 78.533,0 61.705,0 0,19.236 -61.705,0 0,-19.236 z m 61.705,0 126.214,0 0,19.236 -126.214,0 0,-19.236 z m -417.908,-19.236 28.047,0 0,19.237 -28.047,0 0,-19.237 z m 28.048,0 126.214,0 0,19.237 -126.214,0 0,-19.237 z m 126.212,0 123.409,0 0,19.237 -123.409,0 0,-19.237 z m 123.41,0 78.533,0 0,19.237 -78.533,0 0,-19.237 z m 78.533,0 61.705,0 0,19.237 -61.705,0 0,-19.237 z m 61.705,0 126.214,0 0,19.237 -126.214,0 0,-19.237 z m -417.908,-19.236 28.047,0 0,19.236 -28.047,0 0,-19.236 z m 28.048,0 126.214,0 0,19.236 -126.214,0 0,-19.236 z m 126.212,0 123.409,0 0,19.236 -123.409,0 0,-19.236 z m 123.41,0 78.533,0 0,19.236 -78.533,0 0,-19.236 z m 78.533,0 61.705,0 0,19.236 -61.705,0 0,-19.236 z m 61.705,0 126.214,0 0,19.236 -126.214,0 0,-19.236 z M 22.593,223.21 l 28.047,0 0,19.236 -28.047,0 0,-19.236 z m 28.048,0 126.214,0 0,19.236 -126.214,0 0,-19.236 z m 126.212,0 123.409,0 0,19.236 -123.409,0 0,-19.236 z m 123.41,0 78.533,0 0,19.236 -78.533,0 0,-19.236 z m 78.533,0 61.705,0 0,19.236 -61.705,0 0,-19.236 z m 61.705,0 126.214,0 0,19.236 -126.214,0 0,-19.236 z m -417.908,-19.236 28.047,0 0,19.236 -28.047,0 0,-19.236 z m 28.048,0 126.214,0 0,19.236 -126.214,0 0,-19.236 z m 126.212,0 123.409,0 0,19.236 -123.409,0 0,-19.236 z m 123.41,0 78.533,0 0,19.236 -78.533,0 0,-19.236 z m 78.533,0 61.705,0 0,19.236 -61.705,0 0,-19.236 z m 61.705,0 126.214,0 0,19.236 -126.214,0 0,-19.236 z m -417.908,-19.235 28.047,0 0,19.236 -28.047,0 0,-19.236 z m 28.048,0 126.214,0 0,19.236 -126.214,0 0,-19.236 z m 126.212,0 123.409,0 0,19.236 -123.409,0 0,-19.236 z m 123.41,0 78.533,0 0,19.236 -78.533,0 0,-19.236 z m 78.533,0 61.705,0 0,19.236 -61.705,0 0,-19.236 z m 61.705,0 126.214,0 0,19.236 -126.214,0 0,-19.236 z m -417.908,-19.237 28.047,0 0,19.236 -28.047,0 0,-19.236 z m 28.048,0 126.214,0 0,19.236 -126.214,0 0,-19.236 z m 126.212,0 123.409,0 0,19.236 -123.409,0 0,-19.236 z m 123.41,0 78.533,0 0,19.236 -78.533,0 0,-19.236 z m 78.533,0 61.705,0 0,19.236 -61.705,0 0,-19.236 z m 61.705,0 126.214,0 0,19.236 -126.214,0 0,-19.236 z m -417.908,-19.236 28.047,0 0,19.237 -28.047,0 0,-19.237 z m 28.048,0 126.214,0 0,19.237 -126.214,0 0,-19.237 z m 126.212,0 123.409,0 0,19.237 -123.409,0 0,-19.237 z m 123.41,0 78.533,0 0,19.237 -78.533,0 0,-19.237 z m 78.533,0 61.705,0 0,19.237 -61.705,0 0,-19.237 z m 61.705,0 126.214,0 0,19.237 -126.214,0 0,-19.237 z M 22.593,127.03 l 28.047,0 0,19.236 -28.047,0 0,-19.236 z m 28.048,0 126.214,0 0,19.236 -126.214,0 0,-19.236 z m 126.212,0 123.409,0 0,19.236 -123.409,0 0,-19.236 z m 123.41,0 78.533,0 0,19.236 -78.533,0 0,-19.236 z m 78.533,0 61.705,0 0,19.236 -61.705,0 0,-19.236 z m 61.705,0 126.214,0 0,19.236 -126.214,0 0,-19.236 z m -417.908,-19.236 28.047,0 0,19.236 -28.047,0 0,-19.236 z m 28.048,0 126.214,0 0,19.236 -126.214,0 0,-19.236 z m 126.212,0 123.409,0 0,19.236 -123.409,0 0,-19.236 z m 123.41,0 78.533,0 0,19.236 -78.533,0 0,-19.236 z m 78.533,0 61.705,0 0,19.236 -61.705,0 0,-19.236 z m 61.705,0 126.214,0 0,19.236 -126.214,0 0,-19.236 z"
       style="fill:none;stroke:#010202;stroke-width:0.99199998;stroke-linecap:butt;stroke-linejoin:miter;stroke-miterlimit:5;stroke-dasharray:none;stroke-opacity:1"
       id="path12"
       inkscape:connector-curvature="0" /><text
       transform="matrix(1,0,0,-1,24.8198,113.2899)"
       style="font-variant:normal;font-weight:normal;font-size:7.99760008px;font-family:'Nimbus Mono L';-inkscape-font-specification:NimbusMono;writing-mode:lr-tb;fill:#010202;fill-opacity:1;fill-rule:nonzero;stroke:none"
       id="text14"><tspan
         x="0 4.9657097 9.59552 14.897129 19.265419"
         y="0"
         sodipodi:role="line"
         id="tspan16">TOTAL</tspan><tspan
         x="39.500946 44.133957 48.766964 53.498344 58.858337 63.093864 76.139549 88.75177 93.643097 98.593613 102.9779 108.03718 112.74137 118.12135 122.50564 135.30099 139.86443 176.88692 181.68468 266.45844 271.2562"
         y="16.487852"
         sodipodi:role="line"
         id="tspan18">Recibíyconformeeldede</tspan><tspan
         x="39.352192 44.062778 48.773365 61.736675 66.300102 79.255417 83.959602 88.850937 94.05098 98.446457 102.6468 108.04198 112.91412 117.6247 122.33529 126.89872 132.02438 136.3183 397.65826 402.36887 407.07944 419.80923 424.76773 437.79822 442.85031 447.56088 451.86359 456.83011 461.30878 466.35364 470.64838"
         y="35.723679"
         sodipodi:role="line"
         id="tspan20">PorelTrabajador/a,PorlaEmpresa,</tspan></text>
<text
       transform="matrix(1,0,0,-1,24.9688,798.9207)"
       style="font-variant:normal;font-weight:normal;font-size:9.99699974px;font-family:'Nimbus Mono L';-inkscape-font-specification:NimbusMono;writing-mode:lr-tb;fill:#010202;fill-opacity:1;fill-rule:nonzero;stroke:none"
       id="text22"><tspan
         x="0 5.9972005 11.79446 17.288813 23.495949 29.693089 35.9832 41.897427 57.749668 63.970802 79.76506 86.299103 101.54652 107.87063 113.95081 120.15794 126.2821 131.71747 138.2765 153.70888 159.931 175.72527 181.83943 187.42676 203.6209 209.91101 216.2451 221.90541 228.2395 233.48993 240.2339 245.66928 251.80844 257.88861 263.8858 269.39017 295.5813 301.37857 307.66867 314.18271 320.07196 325.56631 341.65347 347.55771 354.16473 360.05496 365.34836 371.63748 377.68365 383.53891"
         y="0"
         sodipodi:role="line"
         id="tspan24">REGISTRODELAJORNADADELOSTRABAJADORESTiempoCompleto</tspan></text>
<text
       transform="matrix(1,0,0,-1,24.0025,784.8202)"
       style="font-variant:normal;font-weight:normal;font-size:11.97970009px;font-family:'Nimbus Mono L';-inkscape-font-specification:NimbusMono;writing-mode:lr-tb;fill:#010202;fill-opacity:1;fill-rule:nonzero;stroke:none"
       id="text26"><tspan
         x="0 7.0069265 14.013853 21.020779 28.027706 35.034634 42.041557 70.070465 84.08432 91.09124 98.098167 105.10509 112.11202 119.11895 133.1328 140.13972 147.14665 154.15358 161.16051 168.16743 175.17436 189.18822 196.19514 203.20207 210.209 217.21593 224.22284 231.22977 238.23669 245.24362 266.26559 273.27252 280.27945 287.28638 294.2933 322.3222 329.32913 336.33606 343.34299 350.34991 357.35684 364.36377 371.3707 378.37762 385.38455 392.39148 399.39841 406.40533 420.41919 427.42612 434.43304 441.43997 448.4469 455.45383 462.46075 469.46768 476.47461 483.48154 490.48846 497.49539 504.50229 511.50922 518.51617"
         y="0"
         sodipodi:role="line"
         id="tspan28">Empresa:QUASARSCIENCERESOURCES36528Cif:B86811924Ccc:28225797907</tspan><tspan
         x="0 7.0069265 14.013853 21.020779 28.027706 35.034634 42.041557 49.048485 56.055412 63.06234 70.069267 322.327 329.33392 336.34085 343.34778 420.42398 427.43091 434.43784 441.44476 448.45169 455.45862 462.46555 469.47247 476.4794 483.48633 490.49326 497.50018 504.50711 511.51401 518.52094 525.52789"
         y="11.996472"
         sodipodi:role="line"
         id="tspan30">Trabajador:Nif:Naf:451038653020</tspan><tspan
         x="0 7.0069265 14.013853 21.020779 28.027706 42.042759 49.049683 56.05661 63.063538 70.070465 77.077393 84.08432 91.09124 98.098167 112.11322 119.12015 133.13519 140.14212 147.14905 154.15598 161.1629 168.16983 175.17676 182.18369 189.19061 322.33899 329.34592 336.35284 350.36789"
         y="23.992943"
         sodipodi:role="line"
         id="tspan32">HorasContrato:40SEMANALESMes:</tspan><tspan
         x="35.039425 42.046352 49.053276 56.060204 63.067131 70.074059 161.17488 168.18181 175.18874 182.19566 189.20259 280.30341 287.31033 294.31726 301.32419 308.33112 357.38559 364.39252 371.39944 378.40637 385.4133 420.45154 427.45847 434.46539 441.47232 448.47925 462.49429 469.50122 476.50815"
         y="47.984688"
         sodipodi:role="line"
         id="tspan34">MAÑANATARDEHORASHORASFIRMADEL</tspan><tspan
         x="0 7.0069265 14.013853 35.035831 42.042759 49.049683 56.05661 63.063538 70.070465 77.077393 105.10629 112.11322 119.12015 126.12708 133.134 140.14093 161.1629 168.16983 175.17676 182.18369 189.19061 196.19754 203.20447 231.23337 238.2403 245.24722 252.25415 259.26108 266.26801 280.28186 287.28879 294.29572 301.30264 308.30957 315.3165 322.32343 329.33035 336.33728 343.34418 357.35803 364.36496 371.37189 378.37881 385.38574 392.39267 420.42157 427.4285 434.43542 441.44235 448.44928 455.45621 462.46313 469.47006 476.47699 483.48392"
         y="59.981159"
         sodipodi:role="line"
         id="tspan36">DIAENTRADASALIDAENTRADASALIDAORDINARIASEXTRASTRABAJADOR</tspan><tspan
         x="14.016249"
         y="77.97467"
         id="tspan38">1</tspan><tspan
         x="14.016249"
         y="95.968178"
         id="tspan40">2</tspan><tspan
         x="14.016249"
         y="113.96169"
         id="tspan42">3</tspan><tspan
         x="14.016249"
         y="131.9552"
         id="tspan44">4</tspan><tspan
         x="14.016249"
         y="155.94814"
         id="tspan46">5</tspan><tspan
         x="14.016249"
         y="173.94165"
         id="tspan48">6</tspan><tspan
         x="14.016249"
         y="191.93517"
         id="tspan50">7</tspan><tspan
         x="14.016249"
         y="209.92867"
         id="tspan52">8</tspan><tspan
         x="14.016249"
         y="227.92218"
         id="tspan54">9</tspan><tspan
         x="7.0081244 14.013853"
         y="251.91512"
         sodipodi:role="line"
         id="tspan56">10</tspan><tspan
         x="7.0081244 14.013853"
         y="269.90863"
         sodipodi:role="line"
         id="tspan58">11</tspan><tspan
         x="7.0081244 14.013853"
         y="287.90213"
         sodipodi:role="line"
         id="tspan60">12</tspan><tspan
         x="7.0081244 14.013853"
         y="305.89566"
         sodipodi:role="line"
         id="tspan62">13</tspan><tspan
         x="7.0081244 14.013853"
         y="323.88916"
         sodipodi:role="line"
         id="tspan64">14</tspan><tspan
         x="7.0081244 14.013853"
         y="347.88211"
         sodipodi:role="line"
         id="tspan66">15</tspan><tspan
         x="7.0081244 14.013853"
         y="365.87561"
         sodipodi:role="line"
         id="tspan68">16</tspan><tspan
         x="7.0081244 14.013853"
         y="383.86911"
         sodipodi:role="line"
         id="tspan70">17</tspan><tspan
         x="7.0081244 14.013853"
         y="401.86264"
         sodipodi:role="line"
         id="tspan72">18</tspan><tspan
         x="7.0081244 14.013853"
         y="419.85614"
         sodipodi:role="line"
         id="tspan74">19</tspan><tspan
         x="7.0081244 14.013853"
         y="443.84909"
         sodipodi:role="line"
         id="tspan76">20</tspan><tspan
         x="7.0081244 14.013853"
         y="461.84259"
         sodipodi:role="line"
         id="tspan78">21</tspan><tspan
         x="7.0081244 14.013853"
         y="479.83609"
         sodipodi:role="line"
         id="tspan80">22</tspan><tspan
         x="7.0081244 14.013853"
         y="497.82962"
         sodipodi:role="line"
         id="tspan82">23</tspan><tspan
         x="7.0081244 14.013853"
         y="515.82312"
         sodipodi:role="line"
         id="tspan84">24</tspan><tspan
         x="7.0081244 14.013853"
         y="539.81604"
         sodipodi:role="line"
         id="tspan86">25</tspan><tspan
         x="7.0081244 14.013853"
         y="557.80957"
         sodipodi:role="line"
         id="tspan88">26</tspan><tspan
         x="7.0081244 14.013853"
         y="575.8031"
         sodipodi:role="line"
         id="tspan90">27</tspan><tspan
         x="7.0081244 14.013853"
         y="593.79657"
         sodipodi:role="line"
         id="tspan92">28</tspan><tspan
         x="7.0081244 14.013853"
         y="611.7901"
         sodipodi:role="line"
         id="tspan94">29</tspan><tspan
         x="7.0081244 14.013853"
         y="635.78302"
         sodipodi:role="line"
         id="tspan96">30</tspan><tspan
         x="7.0081244 14.013853"
         y="653.77655"
         sodipodi:role="line"
         id="tspan98">31</tspan></text>
<text
       xml:space="preserve"
       style="font-style:normal;font-weight:normal;font-size:14px;line-height:125%;font-family:sans-serif;letter-spacing:0px;word-spacing:0px;fill:#000000;fill-opacity:1;stroke:none;stroke-width:1px;stroke-linecap:butt;stroke-linejoin:miter;stroke-opacity:1"
       x="57.944977"
       y="-708.96893"
       id="text4226"
       sodipodi:linespacing="125%"
       transform="scale(1,-1)"><tspan
         sodipodi:role="line"
         id="tspan4228"
         x="57.944977"
         y="-708.96893">A:01        13:00    14:00     BB:01       C01            0</tspan></text>
<flowRoot
       xml:space="preserve"
       id="flowRoot4497"
       style="fill:black;stroke:none;stroke-opacity:1;stroke-width:1px;stroke-linejoin:miter;stroke-linecap:butt;fill-opacity:1;font-family:sans-serif;font-style:normal;font-weight:normal;font-size:17.5px;line-height:125%;letter-spacing:0px;word-spacing:0px"><flowRegion
         id="flowRegion4499"><rect
           id="rect4501"
           width="706.86969"
           height="697.9502"
           x="-49.057205"
           y="185.07945" /></flowRegion><flowPara
         id="flowPara4503" /></flowRoot><text
       xml:space="preserve"
       style="font-style:normal;font-weight:normal;font-size:14px;line-height:125%;font-family:sans-serif;letter-spacing:0px;word-spacing:0px;fill:#000000;fill-opacity:1;stroke:none;stroke-width:1px;stroke-linecap:butt;stroke-linejoin:miter;stroke-opacity:1"
       x="57.944977"
       y="-689.7182"
       id="text4226-3"
       sodipodi:linespacing="125%"
       transform="scale(1,-1)"><tspan
         sodipodi:role="line"
         id="tspan4228-6"
         x="57.944977"
         y="-689.7182">A:02        13:00    14:00     BB:02       C02            0</tspan></text>
<text
       xml:space="preserve"
       style="font-style:normal;font-weight:normal;font-size:14px;line-height:125%;font-family:sans-serif;letter-spacing:0px;word-spacing:0px;fill:#000000;fill-opacity:1;stroke:none;stroke-width:1px;stroke-linecap:butt;stroke-linejoin:miter;stroke-opacity:1"
       x="57.944977"
       y="-670.46735"
       id="text4226-7"
       sodipodi:linespacing="125%"
       transform="scale(1,-1)"><tspan
         sodipodi:role="line"
         id="tspan4228-5"
         x="57.944977"
         y="-670.46735">A:03        13:00    14:00     BB:03       C03            0</tspan></text>
<text
       xml:space="preserve"
       style="font-style:normal;font-weight:normal;font-size:14px;line-height:125%;font-family:sans-serif;letter-spacing:0px;word-spacing:0px;fill:#000000;fill-opacity:1;stroke:none;stroke-width:1px;stroke-linecap:butt;stroke-linejoin:miter;stroke-opacity:1"
       x="57.944977"
       y="-651.21661"
       id="text4226-35"
       sodipodi:linespacing="125%"
       transform="scale(1,-1)"><tspan
         sodipodi:role="line"
         id="tspan4228-62"
         x="57.944977"
         y="-651.21661">A:04        13:00    14:00     BB:04       C04            0</tspan></text>
<text
       xml:space="preserve"
       style="font-style:normal;font-weight:normal;font-size:14px;line-height:125%;font-family:sans-serif;letter-spacing:0px;word-spacing:0px;fill:#000000;fill-opacity:1;stroke:none;stroke-width:1px;stroke-linecap:butt;stroke-linejoin:miter;stroke-opacity:1"
       x="57.944977"
       y="-631.96582"
       id="text4226-9"
       sodipodi:linespacing="125%"
       transform="scale(1,-1)"><tspan
         sodipodi:role="line"
         id="tspan4228-1"
         x="57.944977"
         y="-631.96582">A:05        13:00    14:00     BB:05       C05            0</tspan></text>
<text
       xml:space="preserve"
       style="font-style:normal;font-weight:normal;font-size:14px;line-height:125%;font-family:sans-serif;letter-spacing:0px;word-spacing:0px;fill:#000000;fill-opacity:1;stroke:none;stroke-width:1px;stroke-linecap:butt;stroke-linejoin:miter;stroke-opacity:1"
       x="57.944977"
       y="-612.71503"
       id="text4226-2"
       sodipodi:linespacing="125%"
       transform="scale(1,-1)"><tspan
         sodipodi:role="line"
         id="tspan4228-7"
         x="57.944977"
         y="-612.71503">A:06        13:00    14:00     BB:06       C06            0</tspan></text>
<text
       xml:space="preserve"
       style="font-style:normal;font-weight:normal;font-size:14px;line-height:125%;font-family:sans-serif;letter-spacing:0px;word-spacing:0px;fill:#000000;fill-opacity:1;stroke:none;stroke-width:1px;stroke-linecap:butt;stroke-linejoin:miter;stroke-opacity:1"
       x="57.944977"
       y="-593.46423"
       id="text4226-0"
       sodipodi:linespacing="125%"
       transform="scale(1,-1)"><tspan
         sodipodi:role="line"
         id="tspan4228-9"
         x="57.944977"
         y="-593.46423">A:07        13:00    14:00     BB:07       C07            0</tspan></text>
<text
       xml:space="preserve"
       style="font-style:normal;font-weight:normal;font-size:14px;line-height:125%;font-family:sans-serif;letter-spacing:0px;word-spacing:0px;fill:#000000;fill-opacity:1;stroke:none;stroke-width:1px;stroke-linecap:butt;stroke-linejoin:miter;stroke-opacity:1"
       x="57.944977"
       y="-574.21344"
       id="text4226-36"
       sodipodi:linespacing="125%"
       transform="scale(1,-1)"><tspan
         sodipodi:role="line"
         id="tspan4228-0"
         x="57.944977"
         y="-574.21344">A:08        13:00    14:00     BB:08       C08            0</tspan></text>
<text
       xml:space="preserve"
       style="font-style:normal;font-weight:normal;font-size:14px;line-height:125%;font-family:sans-serif;letter-spacing:0px;word-spacing:0px;fill:#000000;fill-opacity:1;stroke:none;stroke-width:1px;stroke-linecap:butt;stroke-linejoin:miter;stroke-opacity:1"
       x="57.944977"
       y="-554.96271"
       id="text4226-6"
       sodipodi:linespacing="125%"
       transform="scale(1,-1)"><tspan
         sodipodi:role="line"
         id="tspan4228-2"
         x="57.944977"
         y="-554.96271">A:09        13:00    14:00     BB:09       C09            0</tspan></text>
<text
       xml:space="preserve"
       style="font-style:normal;font-weight:normal;font-size:14px;line-height:125%;font-family:sans-serif;letter-spacing:0px;word-spacing:0px;fill:#000000;fill-opacity:1;stroke:none;stroke-width:1px;stroke-linecap:butt;stroke-linejoin:miter;stroke-opacity:1"
       x="57.944977"
       y="-535.71191"
       id="text4226-61"
       sodipodi:linespacing="125%"
       transform="scale(1,-1)"><tspan
         sodipodi:role="line"
         id="tspan4228-8"
         x="57.944977"
         y="-535.71191">A:10        13:00    14:00     BB:10       C10            0</tspan></text>
<text
       xml:space="preserve"
       style="font-style:normal;font-weight:normal;font-size:14px;line-height:125%;font-family:sans-serif;letter-spacing:0px;word-spacing:0px;fill:#000000;fill-opacity:1;stroke:none;stroke-width:1px;stroke-linecap:butt;stroke-linejoin:miter;stroke-opacity:1"
       x="57.944977"
       y="-516.46112"
       id="text4226-79"
       sodipodi:linespacing="125%"
       transform="scale(1,-1)"><tspan
         sodipodi:role="line"
         id="tspan4228-20"
         x="57.944977"
         y="-516.46112">A:11        13:00    14:00     BB:11       C11            0</tspan></text>
<text
       xml:space="preserve"
       style="font-style:normal;font-weight:normal;font-size:14px;line-height:125%;font-family:sans-serif;letter-spacing:0px;word-spacing:0px;fill:#000000;fill-opacity:1;stroke:none;stroke-width:1px;stroke-linecap:butt;stroke-linejoin:miter;stroke-opacity:1"
       x="57.944977"
       y="-497.21033"
       id="text4226-23"
       sodipodi:linespacing="125%"
       transform="scale(1,-1)"><tspan
         sodipodi:role="line"
         id="tspan4228-75"
         x="57.944977"
         y="-497.21033">A:12        13:00    14:00     BB:12       C12            0</tspan></text>
<text
       xml:space="preserve"
       style="font-style:normal;font-weight:normal;font-size:14px;line-height:125%;font-family:sans-serif;letter-spacing:0px;word-spacing:0px;fill:#000000;fill-opacity:1;stroke:none;stroke-width:1px;stroke-linecap:butt;stroke-linejoin:miter;stroke-opacity:1"
       x="57.944977"
       y="-477.95956"
       id="text4226-92"
       sodipodi:linespacing="125%"
       transform="scale(1,-1)"><tspan
         sodipodi:role="line"
         id="tspan4228-28"
         x="57.944977"
         y="-477.95956">A:13        13:00    14:00     BB:13       C13            0</tspan></text>
<text
       xml:space="preserve"
       style="font-style:normal;font-weight:normal;font-size:14px;line-height:125%;font-family:sans-serif;letter-spacing:0px;word-spacing:0px;fill:#000000;fill-opacity:1;stroke:none;stroke-width:1px;stroke-linecap:butt;stroke-linejoin:miter;stroke-opacity:1"
       x="57.944977"
       y="-458.7088"
       id="text4226-97"
       sodipodi:linespacing="125%"
       transform="scale(1,-1)"><tspan
         sodipodi:role="line"
         id="tspan4228-3"
         x="57.944977"
         y="-458.7088">A:14        13:00    14:00     BB:14       C14            0</tspan></text>
<text
       xml:space="preserve"
       style="font-style:normal;font-weight:normal;font-size:14px;line-height:125%;font-family:sans-serif;letter-spacing:0px;word-spacing:0px;fill:#000000;fill-opacity:1;stroke:none;stroke-width:1px;stroke-linecap:butt;stroke-linejoin:miter;stroke-opacity:1"
       x="57.944977"
       y="-439.45801"
       id="text4226-1"
       sodipodi:linespacing="125%"
       transform="scale(1,-1)"><tspan
         sodipodi:role="line"
         id="tspan4228-94"
         x="57.944977"
         y="-439.45801">A:15        13:00    14:00     BB:15       C15            0</tspan></text>
<text
       xml:space="preserve"
       style="font-style:normal;font-weight:normal;font-size:14px;line-height:125%;font-family:sans-serif;letter-spacing:0px;word-spacing:0px;fill:#000000;fill-opacity:1;stroke:none;stroke-width:1px;stroke-linecap:butt;stroke-linejoin:miter;stroke-opacity:1"
       x="57.944977"
       y="-420.20721"
       id="text4226-78"
       sodipodi:linespacing="125%"
       transform="scale(1,-1)"><tspan
         sodipodi:role="line"
         id="tspan4228-4"
         x="57.944977"
         y="-420.20721">A:16        13:00    14:00     BB:16       C16            0</tspan></text>
<text
       xml:space="preserve"
       style="font-style:normal;font-weight:normal;font-size:14px;line-height:125%;font-family:sans-serif;letter-spacing:0px;word-spacing:0px;fill:#000000;fill-opacity:1;stroke:none;stroke-width:1px;stroke-linecap:butt;stroke-linejoin:miter;stroke-opacity:1"
       x="57.944977"
       y="-400.95648"
       id="text4226-5"
       sodipodi:linespacing="125%"
       transform="scale(1,-1)"><tspan
         sodipodi:role="line"
         id="tspan4228-03"
         x="57.944977"
         y="-400.95648">A:17        13:00    14:00     BB:17       C17            0</tspan></text>
<text
       xml:space="preserve"
       style="font-style:normal;font-weight:normal;font-size:14px;line-height:125%;font-family:sans-serif;letter-spacing:0px;word-spacing:0px;fill:#000000;fill-opacity:1;stroke:none;stroke-width:1px;stroke-linecap:butt;stroke-linejoin:miter;stroke-opacity:1"
       x="57.944977"
       y="-381.70569"
       id="text4226-610"
       sodipodi:linespacing="125%"
       transform="scale(1,-1)"><tspan
         sodipodi:role="line"
         id="tspan4228-63"
         x="57.944977"
         y="-381.70569">A:18        13:00    14:00     BB:18       C18            0</tspan></text>
<text
       xml:space="preserve"
       style="font-style:normal;font-weight:normal;font-size:14px;line-height:125%;font-family:sans-serif;letter-spacing:0px;word-spacing:0px;fill:#000000;fill-opacity:1;stroke:none;stroke-width:1px;stroke-linecap:butt;stroke-linejoin:miter;stroke-opacity:1"
       x="57.944977"
       y="-362.4549"
       id="text4226-20"
       sodipodi:linespacing="125%"
       transform="scale(1,-1)"><tspan
         sodipodi:role="line"
         id="tspan4228-61"
         x="57.944977"
         y="-362.4549">A:19        13:00    14:00     BB:19       C19            0</tspan></text>
<text
       xml:space="preserve"
       style="font-style:normal;font-weight:normal;font-size:14px;line-height:125%;font-family:sans-serif;letter-spacing:0px;word-spacing:0px;fill:#000000;fill-opacity:1;stroke:none;stroke-width:1px;stroke-linecap:butt;stroke-linejoin:miter;stroke-opacity:1"
       x="57.944977"
       y="-343.20413"
       id="text4226-55"
       sodipodi:linespacing="125%"
       transform="scale(1,-1)"><tspan
         sodipodi:role="line"
         id="tspan4228-47"
         x="57.944977"
         y="-343.20413">A:20        13:00    14:00     BB:20       C20            0</tspan></text>
<text
       xml:space="preserve"
       style="font-style:normal;font-weight:normal;font-size:14px;line-height:125%;font-family:sans-serif;letter-spacing:0px;word-spacing:0px;fill:#000000;fill-opacity:1;stroke:none;stroke-width:1px;stroke-linecap:butt;stroke-linejoin:miter;stroke-opacity:1"
       x="57.944977"
       y="-323.95334"
       id="text4226-65"
       sodipodi:linespacing="125%"
       transform="scale(1,-1)"><tspan
         sodipodi:role="line"
         id="tspan4228-69"
         x="57.944977"
         y="-323.95334">A:21        13:00    14:00     BB:21       C21            0</tspan></text>
<text
       xml:space="preserve"
       style="font-style:normal;font-weight:normal;font-size:14px;line-height:125%;font-family:sans-serif;letter-spacing:0px;word-spacing:0px;fill:#000000;fill-opacity:1;stroke:none;stroke-width:1px;stroke-linecap:butt;stroke-linejoin:miter;stroke-opacity:1"
       x="57.944977"
       y="-304.70255"
       id="text4226-37"
       sodipodi:linespacing="125%"
       transform="scale(1,-1)"><tspan
         sodipodi:role="line"
         id="tspan4228-45"
         x="57.944977"
         y="-304.70255">A:22        13:00    14:00     BB:22       C22            0</tspan></text>
<text
       xml:space="preserve"
       style="font-style:normal;font-weight:normal;font-size:14px;line-height:125%;font-family:sans-serif;letter-spacing:0px;word-spacing:0px;fill:#000000;fill-opacity:1;stroke:none;stroke-width:1px;stroke-linecap:butt;stroke-linejoin:miter;stroke-opacity:1"
       x="57.944977"
       y="-285.45178"
       id="text4226-25"
       sodipodi:linespacing="125%"
       transform="scale(1,-1)"><tspan
         sodipodi:role="line"
         id="tspan4228-474"
         x="57.944977"
         y="-285.45178">A:23        13:00    14:00     BB:23       C23            0</tspan></text>
<text
       xml:space="preserve"
       style="font-style:normal;font-weight:normal;font-size:14px;line-height:125%;font-family:sans-serif;letter-spacing:0px;word-spacing:0px;fill:#000000;fill-opacity:1;stroke:none;stroke-width:1px;stroke-linecap:butt;stroke-linejoin:miter;stroke-opacity:1"
       x="57.944977"
       y="-266.20102"
       id="text4226-4"
       sodipodi:linespacing="125%"
       transform="scale(1,-1)"><tspan
         sodipodi:role="line"
         id="tspan4228-30"
         x="57.944977"
         y="-266.20102">A:24        13:00    14:00     BB:24       C24            0</tspan></text>
<text
       xml:space="preserve"
       style="font-style:normal;font-weight:normal;font-size:14px;line-height:125%;font-family:sans-serif;letter-spacing:0px;word-spacing:0px;fill:#000000;fill-opacity:1;stroke:none;stroke-width:1px;stroke-linecap:butt;stroke-linejoin:miter;stroke-opacity:1"
       x="57.944977"
       y="-246.95023"
       id="text4226-786"
       sodipodi:linespacing="125%"
       transform="scale(1,-1)"><tspan
         sodipodi:role="line"
         id="tspan4228-88"
         x="57.944977"
         y="-246.95023">A:25        13:00    14:00     BB:25       C25            0</tspan></text>
<text
       xml:space="preserve"
       style="font-style:normal;font-weight:normal;font-size:14px;line-height:125%;font-family:sans-serif;letter-spacing:0px;word-spacing:0px;fill:#000000;fill-opacity:1;stroke:none;stroke-width:1px;stroke-linecap:butt;stroke-linejoin:miter;stroke-opacity:1"
       x="57.944977"
       y="-131.44553"
       id="text4226-43"
       sodipodi:linespacing="125%"
       transform="scale(1,-1)"><tspan
         sodipodi:role="line"
         id="tspan4228-14"
         x="57.944977"
         y="-131.44553">A:31        13:00    14:00     BB:31       C31            0</tspan></text>
<text
       xml:space="preserve"
       style="font-style:normal;font-weight:normal;font-size:14px;line-height:125%;font-family:sans-serif;letter-spacing:0px;word-spacing:0px;fill:#000000;fill-opacity:1;stroke:none;stroke-width:1px;stroke-linecap:butt;stroke-linejoin:miter;stroke-opacity:1"
       x="57.944977"
       y="-227.69943"
       id="text4226-920"
       sodipodi:linespacing="125%"
       transform="scale(1,-1)"><tspan
         sodipodi:role="line"
         id="tspan4228-68"
         x="57.944977"
         y="-227.69943">A:26        13:00    14:00     BB:26       C26            0</tspan></text>
<text
       xml:space="preserve"
       style="font-style:normal;font-weight:normal;font-size:14px;line-height:125%;font-family:sans-serif;letter-spacing:0px;word-spacing:0px;fill:#000000;fill-opacity:1;stroke:none;stroke-width:1px;stroke-linecap:butt;stroke-linejoin:miter;stroke-opacity:1"
       x="57.944977"
       y="-208.44865"
       id="text4226-926"
       sodipodi:linespacing="125%"
       transform="scale(1,-1)"><tspan
         sodipodi:role="line"
         id="tspan4228-64"
         x="57.944977"
         y="-208.44865">A:27        13:00    14:00     BB:27       C27            0</tspan></text>
<text
       xml:space="preserve"
       style="font-style:normal;font-weight:normal;font-size:14px;line-height:125%;font-family:sans-serif;letter-spacing:0px;word-spacing:0px;fill:#000000;fill-opacity:1;stroke:none;stroke-width:1px;stroke-linecap:butt;stroke-linejoin:miter;stroke-opacity:1"
       x="57.944977"
       y="-189.19788"
       id="text4226-95"
       sodipodi:linespacing="125%"
       transform="scale(1,-1)"><tspan
         sodipodi:role="line"
         id="tspan4228-04"
         x="57.944977"
         y="-189.19788">A:28        13:00    14:00     BB:28       C28            0</tspan></text>
<text
       xml:space="preserve"
       style="font-style:normal;font-weight:normal;font-size:14px;line-height:125%;font-family:sans-serif;letter-spacing:0px;word-spacing:0px;fill:#000000;fill-opacity:1;stroke:none;stroke-width:1px;stroke-linecap:butt;stroke-linejoin:miter;stroke-opacity:1"
       x="57.944977"
       y="-169.9471"
       id="text4226-8"
       sodipodi:linespacing="125%"
       transform="scale(1,-1)"><tspan
         sodipodi:role="line"
         id="tspan4228-71"
         x="57.944977"
         y="-169.9471">A:29        13:00    14:00     BB:29       C29            0</tspan></text>
<text
       xml:space="preserve"
       style="font-style:normal;font-weight:normal;font-size:14px;line-height:125%;font-family:sans-serif;letter-spacing:0px;word-spacing:0px;fill:#000000;fill-opacity:1;stroke:none;stroke-width:1px;stroke-linecap:butt;stroke-linejoin:miter;stroke-opacity:1"
       x="57.944977"
       y="-150.69632"
       id="text4226-72"
       sodipodi:linespacing="125%"
       transform="scale(1,-1)"><tspan
         sodipodi:role="line"
         id="tspan4228-72"
         x="57.944977"
         y="-150.69632">A:30        13:00    14:00     BB:30       C30            0</tspan></text>
<text
       xml:space="preserve"
       style="font-style:normal;font-weight:normal;font-size:10px;line-height:125%;font-family:sans-serif;letter-spacing:0px;word-spacing:0px;fill:#000000;fill-opacity:1;stroke:none;stroke-width:1px;stroke-linecap:butt;stroke-linejoin:miter;stroke-opacity:1"
       x="383.82755"
       y="-760.82935"
       id="text4247"
       sodipodi:linespacing="125%"
       transform="scale(1,-1)"><tspan
         sodipodi:role="line"
         id="tspan4249"
         x="383.82755"
         y="-760.82935"
         style="font-style:normal;font-variant:normal;font-weight:normal;font-stretch:normal;font-size:11.97970009px;font-family:'Nimbus Mono L';-inkscape-font-specification:'Nimbus Mono L'">#TMONTH# #TYEAR#</tspan></text>
<text
       xml:space="preserve"
       style="font-style:normal;font-weight:normal;font-size:10px;line-height:125%;font-family:sans-serif;letter-spacing:0px;word-spacing:0px;fill:#000000;fill-opacity:1;stroke:none;stroke-width:1px;stroke-linecap:butt;stroke-linejoin:miter;stroke-opacity:1"
       x="316.77072"
       y="-113.84196"
       id="text4251"
       sodipodi:linespacing="125%"
       transform="scale(1,-1)"><tspan
         sodipodi:role="line"
         id="tspan4253"
         x="316.77072"
         y="-113.84196">#HTOTAL#</tspan></text>
<text
       xml:space="preserve"
       style="font-style:normal;font-weight:normal;font-size:7.9975996px;line-height:125%;font-family:sans-serif;letter-spacing:0px;word-spacing:0px;fill:#000000;fill-opacity:1;stroke:none;stroke-width:1px;stroke-linecap:butt;stroke-linejoin:miter;stroke-opacity:1"
       x="172.8033"
       y="-96.806763"
       id="text4255-2"
       sodipodi:linespacing="125%"
       transform="scale(1,-1)"><tspan
         sodipodi:role="line"
         id="tspan4257-1"
         x="172.8033"
         y="-96.806763"
         style="font-style:normal;font-variant:normal;font-weight:normal;font-stretch:normal;font-size:7.9975996px;font-family:'Nimbus Mono L';-inkscape-font-specification:'Nimbus Mono L'">#FDAY#</tspan></text>
<text
       xml:space="preserve"
       style="font-style:normal;font-weight:normal;font-size:7.9975996px;line-height:125%;font-family:sans-serif;letter-spacing:0px;word-spacing:0px;fill:#000000;fill-opacity:1;stroke:none;stroke-width:1px;stroke-linecap:butt;stroke-linejoin:miter;stroke-opacity:1"
       x="214.92201"
       y="-96.806763"
       id="text4255-3"
       sodipodi:linespacing="125%"
       transform="scale(1,-1)"><tspan
         sodipodi:role="line"
         id="tspan4257-0"
         x="214.92201"
         y="-96.806763"
         style="font-style:normal;font-variant:normal;font-weight:normal;font-stretch:normal;font-size:7.9975996px;font-family:'Nimbus Mono L';-inkscape-font-specification:'Nimbus Mono L'">#FMONTH#</tspan></text>
<text
       xml:space="preserve"
       style="font-style:normal;font-weight:normal;font-size:7.9975996px;line-height:125%;font-family:sans-serif;letter-spacing:0px;word-spacing:0px;fill:#000000;fill-opacity:1;stroke:none;stroke-width:1px;stroke-linecap:butt;stroke-linejoin:miter;stroke-opacity:1"
       x="303.64352"
       y="-96.806763"
       id="text4255-9"
       sodipodi:linespacing="125%"
       transform="scale(1,-1)"><tspan
         sodipodi:role="line"
         id="tspan4257-9"
         x="303.64352"
         y="-96.806763"
         style="font-style:normal;font-variant:normal;font-weight:normal;font-stretch:normal;font-size:7.9975996px;font-family:'Nimbus Mono L';-inkscape-font-specification:'Nimbus Mono L'">#FYEAR#</tspan></text>
<text
       xml:space="preserve"
       style="font-style:normal;font-weight:normal;font-size:10px;line-height:125%;font-family:sans-serif;letter-spacing:0px;word-spacing:0px;fill:#000000;fill-opacity:1;stroke:none;stroke-width:1px;stroke-linecap:butt;stroke-linejoin:miter;stroke-opacity:1"
       x="107.79043"
       y="-772.82806"
       id="text4247-1"
       sodipodi:linespacing="125%"
       transform="scale(1,-1)"><tspan
         sodipodi:role="line"
         id="tspan4249-3"
         x="107.79043"
         y="-772.82806"
         style="font-style:normal;font-variant:normal;font-weight:normal;font-stretch:normal;font-size:11.97970009px;font-family:'Nimbus Mono L';-inkscape-font-specification:'Nimbus Mono L'">#TNAME#</tspan></text>
<text
       xml:space="preserve"
       style="font-style:normal;font-weight:normal;font-size:10px;line-height:125%;font-family:sans-serif;letter-spacing:0px;word-spacing:0px;fill:#000000;fill-opacity:1;stroke:none;stroke-width:1px;stroke-linecap:butt;stroke-linejoin:miter;stroke-opacity:1"
       x="373.85861"
       y="-772.82025"
       id="text4247-1-4"
       sodipodi:linespacing="125%"
       transform="scale(1,-1)"><tspan
         sodipodi:role="line"
         id="tspan4249-3-5"
         x="373.85861"
         y="-772.82025"
         style="font-style:normal;font-variant:normal;font-weight:normal;font-stretch:normal;font-size:11.97970009px;font-family:'Nimbus Mono L';-inkscape-font-specification:'Nimbus Mono L'">#TDNI#</tspan></text>
<text
       xml:space="preserve"
       style="font-style:normal;font-weight:normal;font-size:14px;line-height:125%;font-family:sans-serif;letter-spacing:0px;word-spacing:0px;fill:#000000;fill-opacity:1;stroke:none;stroke-width:1px;stroke-linecap:butt;stroke-linejoin:miter;stroke-opacity:1"
       x="405.23795"
       y="-112.3038"
       id="text4226-43-8"
       sodipodi:linespacing="125%"
       transform="scale(1,-1)"><tspan
         sodipodi:role="line"
         id="tspan4228-14-5"
         x="405.23795"
         y="-112.3038">0</tspan></text>
</g></svg>